HIERARCHY
ROOT Hips
{
	OFFSET 0.000000 0.000000 0.000000
	CHANNELS 6 Xposition Yposition Zposition Xrotation Yrotation Zrotation
	JOINT Spine
	{
		OFFSET 0.000000 0.053497 0.080245
		CHANNELS 3 Xrotation Yrotation Zrotation
		JOINT Spine1
		{
			OFFSET 0.000000 0.018579 0.105368
			CHANNELS 3 Xrotation Yrotation Zrotation
			JOINT Spine2
			{
				OFFSET 0.000000 0.009325 0.106586
				CHANNELS 3 Xrotation Yrotation Zrotation
				JOINT Spine3
				{
					OFFSET 0.000000 0.000000 0.106993
					CHANNELS 3 Xrotation Yrotation Zrotation
					JOINT Neck
					{
						OFFSET 0.000000 -0.040122 0.280858
						CHANNELS 3 Xrotation Yrotation Zrotation
						JOINT Head
						{
							OFFSET 0.000000 -0.025546 0.144881
							CHANNELS 3 Xrotation Yrotation Zrotation
							End Site
							{
								OFFSET 0.000000 0.000000 0.000000
							}
						}
					}
					JOINT RightShoulder
					{
						OFFSET -0.032541 -0.054234 0.175720
						CHANNELS 3 Xrotation Yrotation Zrotation
						JOINT RightArm
						{
							OFFSET -0.161619 0.000000 0.000000
							CHANNELS 3 Xrotation Yrotation Zrotation
							JOINT RightForeArm
							{
								OFFSET -0.257104 0.000000 0.000000
								CHANNELS 3 Xrotation Yrotation Zrotation
								JOINT RightHand
								{
									OFFSET -0.273485 0.000000 0.000000
									CHANNELS 3 Xrotation Yrotation Zrotation
									JOINT RightHandEnd
									{
										OFFSET -0.070844 0.000000 0.000000
										CHANNELS 3 Xrotation Yrotation Zrotation
										End Site
										{
											OFFSET 0.000000 0.000000 0.000000
										}
									}
									JOINT RightHandThumb1
									{
										OFFSET -0.028338 -0.047230 -0.018892
										CHANNELS 3 Xrotation Yrotation Zrotation
										End Site
										{
											OFFSET 0.000000 0.000000 0.000000
										}
									}
								}
							}
						}
					}
					JOINT LeftShoulder
					{
						OFFSET 0.032541 -0.054234 0.175720
						CHANNELS 3 Xrotation Yrotation Zrotation
						JOINT LeftArm
						{
							OFFSET 0.161619 0.000000 0.000000
							CHANNELS 3 Xrotation Yrotation Zrotation
							JOINT LeftForeArm
							{
								OFFSET 0.257104 0.000000 0.000000
								CHANNELS 3 Xrotation Yrotation Zrotation
								JOINT LeftHand
								{
									OFFSET 0.273485 0.000000 0.000000
									CHANNELS 3 Xrotation Yrotation Zrotation
									JOINT LeftHandEnd
									{
										OFFSET 0.070844 0.000000 0.000000
										CHANNELS 3 Xrotation Yrotation Zrotation
										End Site
										{
											OFFSET 0.000000 0.000000 0.000000
										}
									}
									JOINT LeftHandThumb1
									{
										OFFSET 0.028338 -0.047230 -0.018892
										CHANNELS 3 Xrotation Yrotation Zrotation
										End Site
										{
											OFFSET 0.000000 0.000000 0.000000
										}
									}
								}
							}
						}
					}
				}
			}
		}
	}
	JOINT RightUpLeg
	{
		OFFSET -0.096537 0.000000 -0.028202
		CHANNELS 3 Xrotation Yrotation Zrotation
		JOINT RightLeg
		{
			OFFSET 0.000000 0.000000 -0.431842
			CHANNELS 3 Xrotation Yrotation Zrotation
			JOINT RightFoot
			{
				OFFSET 0.000000 0.000000 -0.456398
				CHANNELS 3 Xrotation Yrotation Zrotation
				JOINT RightToeBase
				{
					OFFSET 0.000000 -0.128905 -0.046918
					CHANNELS 3 Xrotation Yrotation Zrotation
					End Site
					{
						OFFSET 0.000000 0.000000 0.000000
					}
				}
			}
		}
	}
	JOINT LeftUpLeg
	{
		OFFSET 0.096537 0.000000 -0.028202
		CHANNELS 3 Xrotation Yrotation Zrotation
		JOINT LeftLeg
		{
			OFFSET 0.000000 0.000000 -0.431842
			CHANNELS 3 Xrotation Yrotation Zrotation
			JOINT LeftFoot
			{
				OFFSET 0.000000 0.000000 -0.456398
				CHANNELS 3 Xrotation Yrotation Zrotation
				JOINT LeftToeBase
				{
					OFFSET 0.000000 -0.128905 -0.046918
					CHANNELS 3 Xrotation Yrotation Zrotation
					End Site
					{
						OFFSET 0.000000 0.000000 0.000000
					}
				}
			}
		}
	}
}
MOTION
Frames: 6
Frame Time: 0.033333
0.199385 1.450655 0.965098 2.578000 0.580000 3.197700 -0.684800 1.325000 0.192200 -0.419900 0.025400 -0.002000 2.120000 -3.261100 0.707100 0.472800 -2.085000 2.206200 0.312100 -7.302100 10.307700 -0.105800 4.862200 17.942400 -5.412500 7.191500 -1.142500 -30.762400 -18.460500 -35.697400 0.000000 0.000000 33.064100 2.602700 16.752500 -3.250400 0.000000 0.000000 0.000000 0.000000 0.000000 0.000000 -6.472500 4.559800 -4.325600 -18.174000 12.771000 21.784600 0.000000 0.000000 -24.027300 -19.502400 -11.045000 4.151600 0.000000 0.000000 0.000000 0.000000 0.000000 0.000000 -3.636400 -0.128000 -25.464800 5.798800 0.000000 0.000000 -4.952800 -4.893100 -2.494100 2.067700 0.000000 0.000000 -4.599200 -1.975300 10.242900 5.403000 0.000000 0.000000 -5.959800 31.202800 9.008400 3.489000 0.000000 0.000000 
0.199420 1.451333 0.965101 2.610400 0.575400 3.172800 -0.668100 1.306100 0.192800 -0.414600 0.025500 -0.001200 2.134400 -3.288600 0.750200 0.480000 -2.105700 2.233500 0.377600 -7.344800 10.463600 -0.232300 4.991100 18.155800 -5.391100 7.294900 -1.198000 -30.837100 -18.545700 -35.766800 0.000000 0.000000 33.076400 2.623500 16.726200 -3.249900 0.000000 0.000000 0.000000 0.000000 0.000000 0.000000 -6.462100 4.614900 -4.301200 -18.168300 12.763700 21.760000 0.000000 0.000000 -24.084200 -19.512700 -11.032200 4.141600 0.000000 0.000000 0.000000 0.000000 0.000000 0.000000 -3.749300 -0.106300 -25.336300 5.868200 0.000000 0.000000 -4.954200 -4.880000 -2.580300 2.076500 0.000000 0.000000 -4.686100 -1.964700 10.186000 5.427500 0.000000 0.000000 -5.978400 31.172200 9.085700 3.527600 0.000000 0.000000 
0.199443 1.452466 0.965088 2.689500 0.572800 3.139200 -0.653300 1.274400 0.193700 -0.406600 0.014000 -0.001300 2.144200 -3.308200 0.810400 0.486400 -2.132300 2.269400 0.461500 -7.373200 10.663600 -0.416200 5.146100 18.406300 -5.350000 7.430900 -1.283800 -30.944300 -18.696900 -35.857600 0.000000 0.000000 33.087900 2.703600 16.709100 -3.272400 0.000000 0.000000 0.000000 0.000000 0.000000 0.000000 -6.456000 4.686200 -4.256600 -18.147300 12.753200 21.738500 0.000000 0.000000 -24.159800 -19.545000 -11.036700 4.126900 0.000000 0.000000 0.000000 0.000000 0.000000 0.000000 -3.954200 -0.077800 -25.169700 5.965400 0.000000 0.000000 -4.935700 -4.855700 -2.679300 2.050400 0.000000 0.000000 -4.849800 -1.958100 10.157400 5.455000 0.000000 0.000000 -5.955200 31.173600 9.128500 3.526300 0.000000 0.000000 
0.199405 1.453698 0.965063 2.788100 0.582200 3.139700 -0.633000 1.232600 0.193900 -0.394300 -0.003000 -0.000800 2.127300 -3.310300 0.848100 0.482700 -2.144800 2.286300 0.516400 -7.339100 10.790300 -0.561600 5.219200 18.539100 -5.331200 7.519800 -1.344200 -31.019100 -18.838400 -35.952300 0.000000 0.000000 33.091900 2.788000 16.701500 -3.303600 0.000000 0.000000 0.000000 0.000000 0.000000 0.000000 -6.459200 4.720500 -4.224800 -18.184100 12.749500 21.776400 0.000000 0.000000 -24.204200 -19.591200 -11.106100 4.105800 0.000000 0.000000 0.000000 0.000000 0.000000 0.000000 -4.163900 -0.066700 -25.097800 6.026300 0.000000 0.000000 -4.891900 -4.829300 -2.721200 1.997300 0.000000 0.000000 -5.045800 -1.968200 10.140800 5.486400 0.000000 0.000000 -5.899900 31.225000 9.121300 3.464800 0.000000 0.000000 
0.199347 1.454859 0.965043 2.890900 0.598900 3.189300 -0.618600 1.185000 0.191600 -0.371700 -0.015900 -0.000200 2.089600 -3.298800 0.849400 0.472300 -2.141500 2.281900 0.519600 -7.245000 10.805700 -0.615500 5.200000 18.512800 -5.340600 7.534100 -1.356500 -31.055200 -18.917000 -36.036500 0.000000 0.000000 33.076000 2.820100 16.672400 -3.314200 0.000000 0.000000 0.000000 0.000000 0.000000 0.000000 -6.461900 4.698400 -4.222700 -18.307500 12.775600 21.877900 0.000000 0.000000 -24.192400 -19.663000 -11.227900 4.103800 0.000000 0.000000 0.000000 0.000000 0.000000 0.000000 -4.344500 -0.067300 -25.152500 6.042200 0.000000 0.000000 -4.841300 -4.811300 -2.700800 1.961300 0.000000 0.000000 -5.251700 -1.983300 10.127300 5.525300 0.000000 0.000000 -5.825100 31.255400 9.060900 3.441800 0.000000 0.000000 
0.199332 1.455986 0.965035 2.995600 0.613400 3.249100 -0.611200 1.130500 0.189000 -0.365700 -0.022300 -0.001100 2.075800 -3.282400 0.842100 0.465600 -2.131500 2.269700 0.504300 -7.138000 10.765500 -0.629200 5.159800 18.403200 -5.349300 7.520400 -1.343800 -31.091200 -18.969300 -36.093300 0.000000 0.000000 33.022300 2.817400 16.587300 -3.295900 0.000000 0.000000 0.000000 0.000000 0.000000 0.000000 -6.456500 4.649300 -4.229600 -18.420000 12.841100 21.975300 0.000000 0.000000 -24.121500 -19.771200 -11.314800 4.143900 0.000000 0.000000 0.000000 0.000000 0.000000 0.000000 -4.518000 -0.063700 -25.228900 6.047300 0.000000 0.000000 -4.796400 -4.805600 -2.675100 1.967900 0.000000 0.000000 -5.453400 -1.995600 10.217100 5.560300 0.000000 0.000000 -5.703300 31.244500 8.869000 3.475500 0.000000 0.000000 
